<?xml version="1.0" encoding="utf-8"?>
<!-- Generator: Adobe Illustrator 23.0.6, SVG Export Plug-In . SVG Version: 6.00 Build 0)  -->
<svg version="1.1" id="Layer_1" xmlns="http://www.w3.org/2000/svg" xmlns:xlink="http://www.w3.org/1999/xlink" x="0px" y="0px"
	 viewBox="0 0 400 63" style="enable-background:new 0 0 400 63;" xml:space="preserve">
<g>
	<path d="M22.6,30.1c0,0,0.1,0,0.1,0c0.1,0,0.1-0.1,0.1-0.1c0.1,0,0.2,0,0.3,0c-1.5-1.2-3.4-2-5.5-2c-4.7,0-8.6,3.8-8.6,8.6
		c0,3.5,2.1,6.5,5,7.8c-0.8-1.3-1.2-2.9-1.3-4.5c0,0,0-0.1,0-0.1c0-3.1,1.7-5.9,4.2-7.7c-2.5,1.8-4.1,4.5-4.2,7.5v0.1
		c0.8,1.8,2.5,3.3,4.4,3.9c-0.7-1.3-1.1-2.9-1.1-4.6C16.2,35,18.9,31.4,22.6,30.1z M23,29.9c-0.2-0.1-0.5-0.2-0.7-0.3
		C22.5,29.7,22.8,29.8,23,29.9C23,29.9,23,29.9,23,29.9z M13.1,32.9c1.3-2.3,3.7-3.8,6.5-3.8c0.7,0,1.3,0.1,2,0.3
		c-0.6-0.2-1.3-0.3-2-0.3C16.8,29.2,14.4,30.7,13.1,32.9z M22.2,29.6C22.2,29.6,22.2,29.6,22.2,29.6C22.2,29.6,22.2,29.6,22.2,29.6z
		"/>
	<path d="M33.4,40.1c-1.5,0.4-3.1,0.3-4.7-0.2c-4.1-1.1-6.8-4.9-6.9-8.9c0-0.1,0-0.2,0-0.3c-1.6,1-2.9,2.7-3.5,4.7
		c-1.3,4.5,1.2,9.3,5.7,10.6c3.3,1,6.8-0.1,8.9-2.6c-1.5,0.4-3.1,0.4-4.7,0c0,0,0,0,0.1,0C30.5,43,32.3,41.9,33.4,40.1z M28.3,43.3
		c0,0-0.1,0-0.1,0c-4.4-1.4-7-5.9-6.6-10.9c0,0.2,0,0.5,0,0.7v0.7C21.7,38.3,24.3,42.1,28.3,43.3z M20.1,33.8c0.4-1.1,0.9-2.2,1.7-3
		c0,0,0,0,0,0c0,0.1,0,0.1,0,0.2c0,0,0,0,0,0c0,0.1,0,0.1,0,0.2c0,0,0-0.1,0-0.1c0-0.1,0-0.1,0-0.2C21.1,31.7,20.5,32.7,20.1,33.8
		c-1.1,3.7,0.8,7.5,4.2,9C20.9,41.5,19,37.6,20.1,33.8z M21.8,31.6C21.8,31.6,21.8,31.6,21.8,31.6C21.8,31.6,21.8,31.6,21.8,31.6z"
		/>
	<path d="M37.8,25.4c-0.1,1.5-0.6,3.1-1.5,4.4c0,0.1,0,0.2,0,0.2c0-0.1,0-0.1,0-0.2c0,0,0,0-0.1,0c-2.2,3.2-6.1,4.5-10,3.7
		c2.9,0.6,5.8,0,8-1.7c0.1-0.1,0.1-0.1,0.1-0.1c0.6-0.5,1.2-1.1,1.7-1.8c0,0,0.1-0.1,0.1-0.1c0,0,0,0,0-0.1c0.4-2-0.1-4.1-1.3-5.8
		c-0.2,1.5-0.7,3.1-1.6,4.4c-0.9,1.3-2,2.3-3.4,3h-0.1c-0.1,0.1-0.1,0.1-0.2,0.1c-0.1,0-0.1,0.1-0.2,0.1c0,0-0.1,0-0.1,0.1
		c-2,1-4.4,1.2-6.6,0.5c0,0,0,0-0.1,0c0,0-0.1,0-0.1,0c0,0,0-0.1-0.1-0.1c0,0,0,0,0,0c0,0-0.1-0.1-0.1-0.1c0,0.1,0,0.1,0,0.2
		c0,0,0,0,0,0c0,0,0,0,0,0c0.5,1.8,1.7,3.5,3.3,4.6c3.9,2.7,9.2,1.6,11.9-2.2C39.5,31.7,39.5,28.2,37.8,25.4z M25.9,33.6
		C25.8,33.6,25.8,33.6,25.9,33.6C25.8,33.6,25.8,33.6,25.9,33.6z"/>
	<path d="M22.4,32.2c0.1,0,0.1,0.1,0.2,0.1C22.5,32.2,22.4,32.2,22.4,32.2z"/>
	<path d="M36.3,29.9C36.3,29.9,36.3,29.9,36.3,29.9C36.3,29.9,36.3,29.9,36.3,29.9z"/>
	<path d="M24,30.6c0-0.1-0.1-0.2-0.1-0.2C23.9,30.5,24,30.5,24,30.6z"/>
	<path d="M9.1,29.8L9.1,29.8c0.6-0.7,1.4-1.2,2.3-1.8c0.5-0.3,1-0.5,1.6-0.7c4-1.5,8.4,0,10.9,3.2c0,0,0,0,0,0c0,0,0,0,0,0
		c0,0,0,0,0-0.1c0,0,0,0,0,0c-0.7-1.4-1.6-2.7-2.7-3.7c1.1,1,2.1,2.3,2.7,3.8c0,0,0,0,0,0.1c0,0,0,0,0-0.1c0,0,0,0,0,0.1
		c0,0,0,0,0,0c0,0,0,0,0,0.1c0,0,0,0.1,0.1,0.1c0,0,0,0,0,0.1c0,0,0,0,0,0c0,0,0,0.1,0,0.1c0.6-1.8,0.7-3.9,0-5.9
		c-1.6-4.4-6.5-6.7-10.9-5.1c-3.3,1.2-5.4,4.1-5.6,7.4c0.9-1.2,2.2-2.1,3.6-2.6C9.8,25.9,9.1,27.8,9.1,29.8z M23.9,30.3
		c0,0,0-0.1-0.1-0.1C23.8,30.2,23.9,30.3,23.9,30.3z"/>
	<path d="M20,17.7C20,17.7,20,17.7,20,17.7c1.3,0.6,2.5,1.5,3.5,2.7c0.1,0.1,0.1,0.1,0.2,0.2c2.5,3.3,2.5,7.8,0.4,11
		c-0.1,0.1-0.2,0.1-0.2,0.2c0,0,0,0,0,0c0,0,0,0,0,0c0,0,0,0,0,0c0,0,0,0,0,0c0,0,0,0,0,0c0,0,0,0,0,0c-0.1,0.1-0.2,0.2-0.2,0.2
		c1.9,0.1,3.9-0.4,5.6-1.7c3.8-2.8,4.5-8.2,1.6-11.9c-2.1-2.8-5.6-3.9-8.7-3.2c1.4,0.6,2.7,1.5,3.8,2.8c0.9,0.5,1.8,1.2,2.5,2.1
		c2.5,3.3,1.8,8-1.4,10.5c-0.9,0.7-2,1.2-3.1,1.4c0,0,0,0,0,0c1.1-0.2,2.1-0.6,3-1.4c3.3-2.5,3.9-7.2,1.4-10.5
		c-0.7-0.9-1.5-1.6-2.5-2.1c0,0,0,0,0,0.1C24.1,17.2,22,17,20,17.7z M23.9,32.1C23.8,32.1,23.8,32.1,23.9,32.1
		C23.8,32.1,23.8,32.1,23.9,32.1C23.8,32.1,23.9,32.1,23.9,32.1C23.9,32.1,23.9,32.1,23.9,32.1z M26.5,19C26.5,19,26.5,18.9,26.5,19
		C26.5,18.9,26.5,18.9,26.5,19z"/>
</g>
<g>
	<path d="M376,30.1c0,0,0.1,0,0.1,0c0.1,0,0.1-0.1,0.1-0.1c0.1,0,0.2,0,0.3,0c-1.5-1.2-3.4-2-5.5-2c-4.7,0-8.6,3.8-8.6,8.6
		c0,3.5,2.1,6.5,5,7.8c-0.8-1.3-1.2-2.9-1.3-4.5c0,0,0-0.1,0-0.1c0-3.1,1.7-5.9,4.2-7.7c-2.5,1.8-4.1,4.5-4.2,7.5v0.1
		c0.8,1.8,2.5,3.3,4.4,3.9c-0.7-1.3-1.1-2.9-1.1-4.6C369.5,35,372.2,31.4,376,30.1z M376.3,29.9c-0.2-0.1-0.5-0.2-0.7-0.3
		C375.9,29.7,376.1,29.8,376.3,29.9C376.4,29.9,376.4,29.9,376.3,29.9z M366.5,32.9c1.3-2.3,3.7-3.8,6.5-3.8c0.7,0,1.3,0.1,2,0.3
		c-0.6-0.2-1.3-0.3-2-0.3C370.2,29.2,367.8,30.7,366.5,32.9z M375.6,29.6C375.6,29.6,375.5,29.6,375.6,29.6
		C375.5,29.6,375.6,29.6,375.6,29.6z"/>
	<path d="M386.8,40.1c-1.5,0.4-3.1,0.3-4.7-0.2c-4.1-1.1-6.8-4.9-6.9-8.9c0-0.1,0-0.2,0-0.3c-1.6,1-2.9,2.7-3.5,4.7
		c-1.3,4.5,1.2,9.3,5.7,10.6c3.3,1,6.8-0.1,8.9-2.6c-1.5,0.4-3.1,0.4-4.7,0c0,0,0,0,0.1,0C383.8,43,385.6,41.9,386.8,40.1z
		 M381.7,43.3c0,0-0.1,0-0.1,0c-4.4-1.4-7-5.9-6.6-10.9c0,0.2,0,0.5,0,0.7v0.7C375.1,38.3,377.7,42.1,381.7,43.3z M373.5,33.8
		c0.4-1.1,0.9-2.2,1.7-3c0,0,0,0,0,0c0,0.1,0,0.1,0,0.2c0,0,0,0,0,0c0,0.1,0,0.1,0,0.2c0,0,0-0.1,0-0.1c0-0.1,0-0.1,0-0.2
		C374.5,31.7,373.9,32.7,373.5,33.8c-1.1,3.7,0.8,7.5,4.2,9C374.3,41.5,372.4,37.6,373.5,33.8z M375.1,31.6
		C375.1,31.6,375.1,31.6,375.1,31.6C375.1,31.6,375.1,31.6,375.1,31.6z"/>
	<path d="M391.1,25.4c-0.1,1.5-0.6,3.1-1.5,4.4c0,0.1,0,0.2,0,0.2c0-0.1,0-0.1,0-0.2c0,0,0,0-0.1,0c-2.2,3.2-6.1,4.5-10,3.7
		c2.9,0.6,5.8,0,8-1.7c0.1-0.1,0.1-0.1,0.1-0.1c0.6-0.5,1.2-1.1,1.7-1.8c0,0,0.1-0.1,0.1-0.1c0,0,0,0,0-0.1c0.4-2-0.1-4.1-1.3-5.8
		c-0.2,1.5-0.7,3.1-1.6,4.4c-0.9,1.3-2,2.3-3.4,3h-0.1c-0.1,0.1-0.1,0.1-0.2,0.1c-0.1,0-0.1,0.1-0.2,0.1c0,0-0.1,0-0.1,0.1
		c-2,1-4.4,1.2-6.6,0.5c0,0,0,0-0.1,0c0,0-0.1,0-0.1,0c0,0,0-0.1-0.1-0.1c0,0,0,0,0,0c0,0-0.1-0.1-0.1-0.1c0,0.1,0,0.1,0,0.2
		c0,0,0,0,0,0c0,0,0,0,0,0c0.5,1.8,1.7,3.5,3.3,4.6c3.9,2.7,9.2,1.6,11.9-2.2C392.9,31.7,392.8,28.2,391.1,25.4z M379.2,33.6
		C379.2,33.6,379.2,33.6,379.2,33.6C379.2,33.6,379.2,33.6,379.2,33.6z"/>
	<path d="M375.7,32.2c0.1,0,0.1,0.1,0.2,0.1C375.8,32.2,375.8,32.2,375.7,32.2z"/>
	<path d="M389.6,29.9C389.6,29.9,389.6,29.9,389.6,29.9C389.6,29.9,389.6,29.9,389.6,29.9z"/>
	<path d="M377.4,30.6c0-0.1-0.1-0.2-0.1-0.2C377.3,30.5,377.3,30.5,377.4,30.6z"/>
	<path d="M362.5,29.8L362.5,29.8c0.6-0.7,1.4-1.2,2.3-1.8c0.5-0.3,1-0.5,1.6-0.7c4-1.5,8.4,0,10.9,3.2c0,0,0,0,0,0c0,0,0,0,0,0
		c0,0,0,0,0-0.1c0,0,0,0,0,0c-0.7-1.4-1.6-2.7-2.7-3.7c1.1,1,2.1,2.3,2.7,3.8c0,0,0,0,0,0.1c0,0,0,0,0-0.1c0,0,0,0,0,0.1
		c0,0,0,0,0,0c0,0,0,0,0,0.1c0,0,0,0.1,0.1,0.1c0,0,0,0,0,0.1c0,0,0,0,0,0c0,0,0,0.1,0,0.1c0.6-1.8,0.7-3.9,0-5.9
		c-1.6-4.4-6.5-6.7-10.9-5.1c-3.3,1.2-5.4,4.1-5.6,7.4c0.9-1.2,2.2-2.1,3.6-2.6C363.2,25.9,362.5,27.8,362.5,29.8z M377.3,30.3
		c0,0,0-0.1-0.1-0.1C377.2,30.2,377.2,30.3,377.3,30.3z"/>
	<path d="M373.4,17.7C373.4,17.7,373.4,17.7,373.4,17.7c1.3,0.6,2.5,1.5,3.5,2.7c0.1,0.1,0.1,0.1,0.2,0.2c2.5,3.3,2.5,7.8,0.4,11
		c-0.1,0.1-0.2,0.1-0.2,0.2c0,0,0,0,0,0c0,0,0,0,0,0c0,0,0,0,0,0c0,0,0,0,0,0c0,0,0,0,0,0c0,0,0,0,0,0c-0.1,0.1-0.2,0.2-0.2,0.2
		c1.9,0.1,3.9-0.4,5.6-1.7c3.8-2.8,4.5-8.2,1.6-11.9c-2.1-2.8-5.6-3.9-8.7-3.2c1.4,0.6,2.7,1.5,3.8,2.8c0.9,0.5,1.8,1.2,2.5,2.1
		c2.5,3.3,1.8,8-1.4,10.5c-0.9,0.7-2,1.2-3.1,1.4c0,0,0,0,0,0c1.1-0.2,2.1-0.6,3-1.4c3.3-2.5,3.9-7.2,1.4-10.5
		c-0.7-0.9-1.5-1.6-2.5-2.1c0,0,0,0,0,0.1C377.5,17.2,375.3,17,373.4,17.7z M377.2,32.1C377.2,32.1,377.2,32.1,377.2,32.1
		C377.2,32.1,377.2,32.1,377.2,32.1C377.2,32.1,377.2,32.1,377.2,32.1C377.2,32.1,377.2,32.1,377.2,32.1z M379.9,19
		C379.9,19,379.8,18.9,379.9,19C379.8,18.9,379.8,18.9,379.9,19z"/>
</g>
<path d="M342.7,29.8H55.2c-1.2,0-2.1,0.9-2.1,2.1v0c0,1.2,0.9,2.1,2.1,2.1h287.4c1.2,0,2.1-0.9,2.1-2.1v0
	C344.8,30.8,343.8,29.8,342.7,29.8z"/>
</svg>
